<svg xmlns="http://www.w3.org/2000/svg" width="1680" height="2300" viewBox="0 0 1680 2300">
<rect x="0" y="0" width="1680" height="2300" rx="0" fill="#f6f7f8" stroke="#f6f7f8" stroke-width="0"/>
<text x="42" y="70" font-family="Arial, Helvetica, sans-serif" font-size="34" font-weight="800" fill="#111" text-anchor="start">#449 Crazy Time 注单 URL UI 原型 v12：数据源对齐版</text>
<text x="42" y="108" font-family="Arial, Helvetica, sans-serif" font-size="18" font-weight="400" fill="#4b4b4b" text-anchor="start">按领导 review 修正：所有玩法仍覆盖，但不再把“玩家二次选点”画成现有报表一定可展示的字段。</text>
<rect x="42" y="132" width="1596" height="58" rx="0" fill="#fff" stroke="#111" stroke-width="1"/>
<text x="62" y="168" font-family="Arial, Helvetica, sans-serif" font-size="21" font-weight="700" fill="#111" text-anchor="start">设计结论：结果区只展示现有 report JSON / bet 记录可确定的数据；玩家私有选点若未落库，不猜测、不写死，明确标为需补落库。</text>
<rect x="42" y="214" width="1596" height="150" rx="0" fill="#fff" stroke="#aaa" stroke-width="1"/>
<text x="62" y="248" font-family="Arial, Helvetica, sans-serif" font-size="24" font-weight="800" fill="#111" text-anchor="start">一期推荐字段</text>
<rect x="62" y="270" width="130" height="26" rx="7" fill="#4a6275" stroke="#4a6275" stroke-width="0"/>
<text x="127.0" y="289" font-family="Arial, Helvetica, sans-serif" font-size="15" font-weight="700" fill="white" text-anchor="middle">Game Result</text>
<text x="204" y="290" font-family="Arial, Helvetica, sans-serif" font-size="16" font-weight="400" fill="#333" text-anchor="start">本局命中数字段或特殊玩法</text>
<rect x="582" y="270" width="140" height="26" rx="7" fill="#4a6275" stroke="#4a6275" stroke-width="0"/>
<text x="652.0" y="289" font-family="Arial, Helvetica, sans-serif" font-size="15" font-weight="700" fill="white" text-anchor="middle">Public Bonus</text>
<text x="734" y="290" font-family="Arial, Helvetica, sans-serif" font-size="16" font-weight="400" fill="#333" text-anchor="start">bonus 公共结果；有数据才展示</text>
<rect x="1102" y="270" width="150" height="26" rx="7" fill="#4a6275" stroke="#4a6275" stroke-width="0"/>
<text x="1177.0" y="289" font-family="Arial, Helvetica, sans-serif" font-size="15" font-weight="700" fill="white" text-anchor="middle">Bet Selection</text>
<text x="1264" y="290" font-family="Arial, Helvetica, sans-serif" font-size="16" font-weight="400" fill="#333" text-anchor="start">玩家下注项；不是二次选点</text>
<rect x="62" y="312" width="180" height="26" rx="7" fill="#4a6275" stroke="#4a6275" stroke-width="0"/>
<text x="152.0" y="331" font-family="Arial, Helvetica, sans-serif" font-size="15" font-weight="700" fill="white" text-anchor="middle">Final Multiplier</text>
<text x="254" y="332" font-family="Arial, Helvetica, sans-serif" font-size="16" font-weight="400" fill="#333" text-anchor="start">该注实际倍率，按 report / 派彩确认</text>
<rect x="582" y="312" width="150" height="26" rx="7" fill="#4a6275" stroke="#4a6275" stroke-width="0"/>
<text x="657.0" y="331" font-family="Arial, Helvetica, sans-serif" font-size="15" font-weight="700" fill="white" text-anchor="middle">Special Boost</text>
<text x="744" y="332" font-family="Arial, Helvetica, sans-serif" font-size="16" font-weight="400" fill="#333" text-anchor="start">Top Slot / Boost 有数据才展示</text>
<rect x="1102" y="312" width="128" height="26" rx="7" fill="#4a6275" stroke="#4a6275" stroke-width="0"/>
<text x="1166.0" y="331" font-family="Arial, Helvetica, sans-serif" font-size="15" font-weight="700" fill="white" text-anchor="middle">Data Note</text>
<text x="1244" y="332" font-family="Arial, Helvetica, sans-serif" font-size="16" font-weight="400" fill="#333" text-anchor="start">仅在私有选点缺失时提示</text>
<rect x="42" y="392" width="1596" height="456" rx="0" fill="#fff" stroke="#aaa" stroke-width="1"/>
<rect x="42" y="392" width="1596" height="130" rx="0" fill="#dcdcdc" stroke="#aaa" stroke-width="1"/>
<text x="840.0" y="430" font-family="Arial, Helvetica, sans-serif" font-size="20" font-weight="700" fill="#111" text-anchor="middle">Game started at 2026/07/08 03:50:13 UTC</text>
<text x="840.0" y="458" font-family="Arial, Helvetica, sans-serif" font-size="20" font-weight="700" fill="#111" text-anchor="middle">Round Id : 7198364607200740</text>
<text x="840.0" y="486" font-family="Arial, Helvetica, sans-serif" font-size="20" font-weight="700" fill="#111" text-anchor="middle">Game Id : 18bff8a5a4e90ed55a5164a</text>
<text x="840.0" y="514" font-family="Arial, Helvetica, sans-serif" font-size="20" font-weight="700" fill="#111" text-anchor="middle">Table name : 疯狂时光</text>
<rect x="42" y="522" width="1596" height="44" rx="0" fill="#b6b6b6" stroke="#aaa" stroke-width="1"/>
<text x="840.0" y="552" font-family="Arial, Helvetica, sans-serif" font-size="24" font-weight="800" fill="#111" text-anchor="middle">Result</text>
<text x="62" y="610" font-family="Arial, Helvetica, sans-serif" font-size="22" font-weight="800" fill="#111" text-anchor="start">单局结果摘要组件（v12 示例）</text>
<rect x="62" y="636" width="1556" height="46" rx="0" fill="#fff" stroke="#d0d0d0" stroke-width="1"/>
<rect x="62" y="636" width="178" height="46" rx="0" fill="#efefef" stroke="#efefef" stroke-width="0"/>
<text x="74" y="665" font-family="Arial, Helvetica, sans-serif" font-size="17" font-weight="700" fill="#111" text-anchor="start">Game Result</text>
<rect x="254" y="646" width="102" height="26" rx="7" fill="#b47a00" stroke="#b47a00" stroke-width="0"/>
<text x="305.0" y="665" font-family="Arial, Helvetica, sans-serif" font-size="15" font-weight="700" fill="white" text-anchor="middle">Pachinko</text>
<text x="368" y="665" font-family="Arial, Helvetica, sans-serif" font-size="18" font-weight="400" fill="#202020" text-anchor="start">特殊玩法命中</text>
<rect x="62" y="682" width="1556" height="46" rx="0" fill="#fff" stroke="#d0d0d0" stroke-width="1"/>
<rect x="62" y="682" width="178" height="46" rx="0" fill="#efefef" stroke="#efefef" stroke-width="0"/>
<text x="74" y="711" font-family="Arial, Helvetica, sans-serif" font-size="17" font-weight="700" fill="#111" text-anchor="start">Public Bonus</text>
<text x="254" y="711" font-family="Arial, Helvetica, sans-serif" font-size="18" font-weight="400" fill="#202020" text-anchor="start">最终落点 / 公共倍率帧；无数据则整行隐藏</text>
<rect x="62" y="728" width="1556" height="46" rx="0" fill="#fff" stroke="#d0d0d0" stroke-width="1"/>
<rect x="62" y="728" width="178" height="46" rx="0" fill="#efefef" stroke="#efefef" stroke-width="0"/>
<text x="74" y="757" font-family="Arial, Helvetica, sans-serif" font-size="17" font-weight="700" fill="#111" text-anchor="start">Bet Selection</text>
<text x="254" y="757" font-family="Arial, Helvetica, sans-serif" font-size="18" font-weight="400" fill="#202020" text-anchor="start">玩家下注项：Pachinko</text>
<rect x="62" y="774" width="1556" height="46" rx="0" fill="#fff" stroke="#d0d0d0" stroke-width="1"/>
<rect x="62" y="774" width="178" height="46" rx="0" fill="#efefef" stroke="#efefef" stroke-width="0"/>
<text x="74" y="803" font-family="Arial, Helvetica, sans-serif" font-size="17" font-weight="700" fill="#111" text-anchor="start">Final Multiplier</text>
<text x="254" y="803" font-family="Arial, Helvetica, sans-serif" font-size="18" font-weight="400" fill="#202020" text-anchor="start">该注实际倍率：7x</text>
<rect x="62" y="820" width="1556" height="46" rx="0" fill="#fff" stroke="#d0d0d0" stroke-width="1"/>
<rect x="62" y="820" width="178" height="46" rx="0" fill="#efefef" stroke="#efefef" stroke-width="0"/>
<text x="74" y="849" font-family="Arial, Helvetica, sans-serif" font-size="17" font-weight="700" fill="#111" text-anchor="start">Special Boost</text>
<text x="254" y="849" font-family="Arial, Helvetica, sans-serif" font-size="18" font-weight="400" fill="#202020" text-anchor="start">不存在时不显示 Top Slot 空行；存在时显示 Top Slot / Boost</text>
<rect x="62" y="866" width="1556" height="46" rx="0" fill="#fff" stroke="#d0d0d0" stroke-width="1"/>
<rect x="62" y="866" width="178" height="46" rx="0" fill="#efefef" stroke="#efefef" stroke-width="0"/>
<text x="74" y="895" font-family="Arial, Helvetica, sans-serif" font-size="17" font-weight="700" fill="#111" text-anchor="start">Data Note</text>
<rect x="254" y="876" width="102" height="26" rx="7" fill="#5c5c5c" stroke="#5c5c5c" stroke-width="0"/>
<text x="305.0" y="895" font-family="Arial, Helvetica, sans-serif" font-size="15" font-weight="700" fill="white" text-anchor="middle">No Guess</text>
<text x="368" y="895" font-family="Arial, Helvetica, sans-serif" font-size="18" font-weight="400" fill="#202020" text-anchor="start">仅当本玩法需要玩家私有选点且报表无落库时显示说明</text>
<text x="42" y="940" font-family="Arial, Helvetica, sans-serif" font-size="24" font-weight="800" fill="#111" text-anchor="start">所有玩法展示状态</text>
<rect x="60" y="966" width="508" height="286" rx="0" fill="#fff" stroke="#9f9f9f" stroke-width="1"/>
<rect x="60" y="966" width="508" height="48" rx="0" fill="#dedede" stroke="#9f9f9f" stroke-width="1"/>
<circle cx="86" cy="990" r="13" fill="#1f2326"/>
<text x="86" y="996" font-family="Arial, Helvetica, sans-serif" font-size="15" font-weight="700" fill="white" text-anchor="middle">1</text>
<text x="112" y="997" font-family="Arial, Helvetica, sans-serif" font-size="20" font-weight="700" fill="#111" text-anchor="start">数字 1</text>
<rect x="473" y="978" width="82" height="26" rx="7" fill="#4a6275" stroke="#4a6275" stroke-width="0"/>
<text x="514.0" y="997" font-family="Arial, Helvetica, sans-serif" font-size="15" font-weight="700" fill="white" text-anchor="middle">Number</text>
<rect x="60" y="1014" width="508" height="46" rx="0" fill="#fff" stroke="#d0d0d0" stroke-width="1"/>
<rect x="60" y="1014" width="178" height="46" rx="0" fill="#efefef" stroke="#efefef" stroke-width="0"/>
<text x="72" y="1043" font-family="Arial, Helvetica, sans-serif" font-size="17" font-weight="700" fill="#111" text-anchor="start">Game Result</text>
<rect x="252" y="1024" width="58" height="26" rx="7" fill="#217346" stroke="#217346" stroke-width="0"/>
<text x="281.0" y="1043" font-family="Arial, Helvetica, sans-serif" font-size="15" font-weight="700" fill="white" text-anchor="middle">可展示</text>
<text x="322" y="1043" font-family="Arial, Helvetica, sans-serif" font-size="18" font-weight="400" fill="#202020" text-anchor="start">1</text>
<rect x="60" y="1060" width="508" height="46" rx="0" fill="#fff" stroke="#d0d0d0" stroke-width="1"/>
<rect x="60" y="1060" width="178" height="46" rx="0" fill="#efefef" stroke="#efefef" stroke-width="0"/>
<text x="72" y="1089" font-family="Arial, Helvetica, sans-serif" font-size="17" font-weight="700" fill="#111" text-anchor="start">Public Bonus</text>
<text x="252" y="1089" font-family="Arial, Helvetica, sans-serif" font-size="18" font-weight="400" fill="#202020" text-anchor="start">无；隐藏此行</text>
<rect x="60" y="1106" width="508" height="46" rx="0" fill="#fff" stroke="#d0d0d0" stroke-width="1"/>
<rect x="60" y="1106" width="178" height="46" rx="0" fill="#efefef" stroke="#efefef" stroke-width="0"/>
<text x="72" y="1135" font-family="Arial, Helvetica, sans-serif" font-size="17" font-weight="700" fill="#111" text-anchor="start">Bet Selection</text>
<text x="252" y="1135" font-family="Arial, Helvetica, sans-serif" font-size="18" font-weight="400" fill="#202020" text-anchor="start">数字 1</text>
<rect x="60" y="1152" width="508" height="46" rx="0" fill="#fff" stroke="#d0d0d0" stroke-width="1"/>
<rect x="60" y="1152" width="178" height="46" rx="0" fill="#efefef" stroke="#efefef" stroke-width="0"/>
<text x="72" y="1181" font-family="Arial, Helvetica, sans-serif" font-size="17" font-weight="700" fill="#111" text-anchor="start">Final Multiplier</text>
<text x="252" y="1181" font-family="Arial, Helvetica, sans-serif" font-size="18" font-weight="400" fill="#202020" text-anchor="start">基础派彩 2x</text>
<rect x="60" y="1198" width="508" height="46" rx="0" fill="#fff" stroke="#d0d0d0" stroke-width="1"/>
<rect x="60" y="1198" width="178" height="46" rx="0" fill="#efefef" stroke="#efefef" stroke-width="0"/>
<text x="72" y="1227" font-family="Arial, Helvetica, sans-serif" font-size="17" font-weight="700" fill="#111" text-anchor="start">Special Boost</text>
<text x="252" y="1227" font-family="Arial, Helvetica, sans-serif" font-size="18" font-weight="400" fill="#202020" text-anchor="start">有 top slot / boost 才显示</text>
<rect x="584" y="966" width="508" height="286" rx="0" fill="#fff" stroke="#9f9f9f" stroke-width="1"/>
<rect x="584" y="966" width="508" height="48" rx="0" fill="#dedede" stroke="#9f9f9f" stroke-width="1"/>
<circle cx="610" cy="990" r="13" fill="#1f2326"/>
<text x="610" y="996" font-family="Arial, Helvetica, sans-serif" font-size="15" font-weight="700" fill="white" text-anchor="middle">2</text>
<text x="636" y="997" font-family="Arial, Helvetica, sans-serif" font-size="20" font-weight="700" fill="#111" text-anchor="start">数字 2</text>
<rect x="997" y="978" width="82" height="26" rx="7" fill="#4a6275" stroke="#4a6275" stroke-width="0"/>
<text x="1038.0" y="997" font-family="Arial, Helvetica, sans-serif" font-size="15" font-weight="700" fill="white" text-anchor="middle">Number</text>
<rect x="584" y="1014" width="508" height="46" rx="0" fill="#fff" stroke="#d0d0d0" stroke-width="1"/>
<rect x="584" y="1014" width="178" height="46" rx="0" fill="#efefef" stroke="#efefef" stroke-width="0"/>
<text x="596" y="1043" font-family="Arial, Helvetica, sans-serif" font-size="17" font-weight="700" fill="#111" text-anchor="start">Game Result</text>
<rect x="776" y="1024" width="58" height="26" rx="7" fill="#217346" stroke="#217346" stroke-width="0"/>
<text x="805.0" y="1043" font-family="Arial, Helvetica, sans-serif" font-size="15" font-weight="700" fill="white" text-anchor="middle">可展示</text>
<text x="846" y="1043" font-family="Arial, Helvetica, sans-serif" font-size="18" font-weight="400" fill="#202020" text-anchor="start">2</text>
<rect x="584" y="1060" width="508" height="46" rx="0" fill="#fff" stroke="#d0d0d0" stroke-width="1"/>
<rect x="584" y="1060" width="178" height="46" rx="0" fill="#efefef" stroke="#efefef" stroke-width="0"/>
<text x="596" y="1089" font-family="Arial, Helvetica, sans-serif" font-size="17" font-weight="700" fill="#111" text-anchor="start">Public Bonus</text>
<text x="776" y="1089" font-family="Arial, Helvetica, sans-serif" font-size="18" font-weight="400" fill="#202020" text-anchor="start">无；隐藏此行</text>
<rect x="584" y="1106" width="508" height="46" rx="0" fill="#fff" stroke="#d0d0d0" stroke-width="1"/>
<rect x="584" y="1106" width="178" height="46" rx="0" fill="#efefef" stroke="#efefef" stroke-width="0"/>
<text x="596" y="1135" font-family="Arial, Helvetica, sans-serif" font-size="17" font-weight="700" fill="#111" text-anchor="start">Bet Selection</text>
<text x="776" y="1135" font-family="Arial, Helvetica, sans-serif" font-size="18" font-weight="400" fill="#202020" text-anchor="start">数字 2</text>
<rect x="584" y="1152" width="508" height="46" rx="0" fill="#fff" stroke="#d0d0d0" stroke-width="1"/>
<rect x="584" y="1152" width="178" height="46" rx="0" fill="#efefef" stroke="#efefef" stroke-width="0"/>
<text x="596" y="1181" font-family="Arial, Helvetica, sans-serif" font-size="17" font-weight="700" fill="#111" text-anchor="start">Final Multiplier</text>
<text x="776" y="1181" font-family="Arial, Helvetica, sans-serif" font-size="18" font-weight="400" fill="#202020" text-anchor="start">基础派彩 3x</text>
<rect x="584" y="1198" width="508" height="46" rx="0" fill="#fff" stroke="#d0d0d0" stroke-width="1"/>
<rect x="584" y="1198" width="178" height="46" rx="0" fill="#efefef" stroke="#efefef" stroke-width="0"/>
<text x="596" y="1227" font-family="Arial, Helvetica, sans-serif" font-size="17" font-weight="700" fill="#111" text-anchor="start">Special Boost</text>
<text x="776" y="1227" font-family="Arial, Helvetica, sans-serif" font-size="18" font-weight="400" fill="#202020" text-anchor="start">有 top slot / boost 才显示</text>
<rect x="1108" y="966" width="508" height="286" rx="0" fill="#fff" stroke="#9f9f9f" stroke-width="1"/>
<rect x="1108" y="966" width="508" height="48" rx="0" fill="#dedede" stroke="#9f9f9f" stroke-width="1"/>
<circle cx="1134" cy="990" r="13" fill="#1f2326"/>
<text x="1134" y="996" font-family="Arial, Helvetica, sans-serif" font-size="15" font-weight="700" fill="white" text-anchor="middle">3</text>
<text x="1160" y="997" font-family="Arial, Helvetica, sans-serif" font-size="20" font-weight="700" fill="#111" text-anchor="start">数字 5</text>
<rect x="1521" y="978" width="82" height="26" rx="7" fill="#4a6275" stroke="#4a6275" stroke-width="0"/>
<text x="1562.0" y="997" font-family="Arial, Helvetica, sans-serif" font-size="15" font-weight="700" fill="white" text-anchor="middle">Number</text>
<rect x="1108" y="1014" width="508" height="46" rx="0" fill="#fff" stroke="#d0d0d0" stroke-width="1"/>
<rect x="1108" y="1014" width="178" height="46" rx="0" fill="#efefef" stroke="#efefef" stroke-width="0"/>
<text x="1120" y="1043" font-family="Arial, Helvetica, sans-serif" font-size="17" font-weight="700" fill="#111" text-anchor="start">Game Result</text>
<rect x="1300" y="1024" width="58" height="26" rx="7" fill="#217346" stroke="#217346" stroke-width="0"/>
<text x="1329.0" y="1043" font-family="Arial, Helvetica, sans-serif" font-size="15" font-weight="700" fill="white" text-anchor="middle">可展示</text>
<text x="1370" y="1043" font-family="Arial, Helvetica, sans-serif" font-size="18" font-weight="400" fill="#202020" text-anchor="start">5</text>
<rect x="1108" y="1060" width="508" height="46" rx="0" fill="#fff" stroke="#d0d0d0" stroke-width="1"/>
<rect x="1108" y="1060" width="178" height="46" rx="0" fill="#efefef" stroke="#efefef" stroke-width="0"/>
<text x="1120" y="1089" font-family="Arial, Helvetica, sans-serif" font-size="17" font-weight="700" fill="#111" text-anchor="start">Public Bonus</text>
<text x="1300" y="1089" font-family="Arial, Helvetica, sans-serif" font-size="18" font-weight="400" fill="#202020" text-anchor="start">无；隐藏此行</text>
<rect x="1108" y="1106" width="508" height="46" rx="0" fill="#fff" stroke="#d0d0d0" stroke-width="1"/>
<rect x="1108" y="1106" width="178" height="46" rx="0" fill="#efefef" stroke="#efefef" stroke-width="0"/>
<text x="1120" y="1135" font-family="Arial, Helvetica, sans-serif" font-size="17" font-weight="700" fill="#111" text-anchor="start">Bet Selection</text>
<text x="1300" y="1135" font-family="Arial, Helvetica, sans-serif" font-size="18" font-weight="400" fill="#202020" text-anchor="start">数字 5</text>
<rect x="1108" y="1152" width="508" height="46" rx="0" fill="#fff" stroke="#d0d0d0" stroke-width="1"/>
<rect x="1108" y="1152" width="178" height="46" rx="0" fill="#efefef" stroke="#efefef" stroke-width="0"/>
<text x="1120" y="1181" font-family="Arial, Helvetica, sans-serif" font-size="17" font-weight="700" fill="#111" text-anchor="start">Final Multiplier</text>
<text x="1300" y="1181" font-family="Arial, Helvetica, sans-serif" font-size="18" font-weight="400" fill="#202020" text-anchor="start">基础派彩 6x</text>
<rect x="1108" y="1198" width="508" height="46" rx="0" fill="#fff" stroke="#d0d0d0" stroke-width="1"/>
<rect x="1108" y="1198" width="178" height="46" rx="0" fill="#efefef" stroke="#efefef" stroke-width="0"/>
<text x="1120" y="1227" font-family="Arial, Helvetica, sans-serif" font-size="17" font-weight="700" fill="#111" text-anchor="start">Special Boost</text>
<text x="1300" y="1227" font-family="Arial, Helvetica, sans-serif" font-size="18" font-weight="400" fill="#202020" text-anchor="start">有 top slot / boost 才显示</text>
<rect x="60" y="1268" width="508" height="286" rx="0" fill="#fff" stroke="#9f9f9f" stroke-width="1"/>
<rect x="60" y="1268" width="508" height="48" rx="0" fill="#dedede" stroke="#9f9f9f" stroke-width="1"/>
<circle cx="86" cy="1292" r="13" fill="#1f2326"/>
<text x="86" y="1298" font-family="Arial, Helvetica, sans-serif" font-size="15" font-weight="700" fill="white" text-anchor="middle">4</text>
<text x="112" y="1299" font-family="Arial, Helvetica, sans-serif" font-size="20" font-weight="700" fill="#111" text-anchor="start">数字 10</text>
<rect x="473" y="1280" width="82" height="26" rx="7" fill="#4a6275" stroke="#4a6275" stroke-width="0"/>
<text x="514.0" y="1299" font-family="Arial, Helvetica, sans-serif" font-size="15" font-weight="700" fill="white" text-anchor="middle">Number</text>
<rect x="60" y="1316" width="508" height="46" rx="0" fill="#fff" stroke="#d0d0d0" stroke-width="1"/>
<rect x="60" y="1316" width="178" height="46" rx="0" fill="#efefef" stroke="#efefef" stroke-width="0"/>
<text x="72" y="1345" font-family="Arial, Helvetica, sans-serif" font-size="17" font-weight="700" fill="#111" text-anchor="start">Game Result</text>
<rect x="252" y="1326" width="58" height="26" rx="7" fill="#217346" stroke="#217346" stroke-width="0"/>
<text x="281.0" y="1345" font-family="Arial, Helvetica, sans-serif" font-size="15" font-weight="700" fill="white" text-anchor="middle">可展示</text>
<text x="322" y="1345" font-family="Arial, Helvetica, sans-serif" font-size="18" font-weight="400" fill="#202020" text-anchor="start">10</text>
<rect x="60" y="1362" width="508" height="46" rx="0" fill="#fff" stroke="#d0d0d0" stroke-width="1"/>
<rect x="60" y="1362" width="178" height="46" rx="0" fill="#efefef" stroke="#efefef" stroke-width="0"/>
<text x="72" y="1391" font-family="Arial, Helvetica, sans-serif" font-size="17" font-weight="700" fill="#111" text-anchor="start">Public Bonus</text>
<text x="252" y="1391" font-family="Arial, Helvetica, sans-serif" font-size="18" font-weight="400" fill="#202020" text-anchor="start">无；隐藏此行</text>
<rect x="60" y="1408" width="508" height="46" rx="0" fill="#fff" stroke="#d0d0d0" stroke-width="1"/>
<rect x="60" y="1408" width="178" height="46" rx="0" fill="#efefef" stroke="#efefef" stroke-width="0"/>
<text x="72" y="1437" font-family="Arial, Helvetica, sans-serif" font-size="17" font-weight="700" fill="#111" text-anchor="start">Bet Selection</text>
<text x="252" y="1437" font-family="Arial, Helvetica, sans-serif" font-size="18" font-weight="400" fill="#202020" text-anchor="start">数字 10</text>
<rect x="60" y="1454" width="508" height="46" rx="0" fill="#fff" stroke="#d0d0d0" stroke-width="1"/>
<rect x="60" y="1454" width="178" height="46" rx="0" fill="#efefef" stroke="#efefef" stroke-width="0"/>
<text x="72" y="1483" font-family="Arial, Helvetica, sans-serif" font-size="17" font-weight="700" fill="#111" text-anchor="start">Final Multiplier</text>
<text x="252" y="1483" font-family="Arial, Helvetica, sans-serif" font-size="18" font-weight="400" fill="#202020" text-anchor="start">基础派彩 11x</text>
<rect x="60" y="1500" width="508" height="46" rx="0" fill="#fff" stroke="#d0d0d0" stroke-width="1"/>
<rect x="60" y="1500" width="178" height="46" rx="0" fill="#efefef" stroke="#efefef" stroke-width="0"/>
<text x="72" y="1529" font-family="Arial, Helvetica, sans-serif" font-size="17" font-weight="700" fill="#111" text-anchor="start">Special Boost</text>
<text x="252" y="1529" font-family="Arial, Helvetica, sans-serif" font-size="18" font-weight="400" fill="#202020" text-anchor="start">有 top slot / boost 才显示</text>
<rect x="584" y="1268" width="508" height="286" rx="0" fill="#fff" stroke="#9f9f9f" stroke-width="1"/>
<rect x="584" y="1268" width="508" height="48" rx="0" fill="#dedede" stroke="#9f9f9f" stroke-width="1"/>
<circle cx="610" cy="1292" r="13" fill="#1f2326"/>
<text x="610" y="1298" font-family="Arial, Helvetica, sans-serif" font-size="15" font-weight="700" fill="white" text-anchor="middle">5</text>
<text x="636" y="1299" font-family="Arial, Helvetica, sans-serif" font-size="20" font-weight="700" fill="#111" text-anchor="start">数字 + 特殊加倍</text>
<rect x="997" y="1280" width="72" height="26" rx="7" fill="#3f464d" stroke="#3f464d" stroke-width="0"/>
<text x="1033.0" y="1299" font-family="Arial, Helvetica, sans-serif" font-size="15" font-weight="700" fill="white" text-anchor="middle">Boost</text>
<rect x="584" y="1316" width="508" height="46" rx="0" fill="#fff" stroke="#d0d0d0" stroke-width="1"/>
<rect x="584" y="1316" width="178" height="46" rx="0" fill="#efefef" stroke="#efefef" stroke-width="0"/>
<text x="596" y="1345" font-family="Arial, Helvetica, sans-serif" font-size="17" font-weight="700" fill="#111" text-anchor="start">Game Result</text>
<rect x="776" y="1326" width="58" height="26" rx="7" fill="#217346" stroke="#217346" stroke-width="0"/>
<text x="805.0" y="1345" font-family="Arial, Helvetica, sans-serif" font-size="15" font-weight="700" fill="white" text-anchor="middle">可展示</text>
<text x="846" y="1345" font-family="Arial, Helvetica, sans-serif" font-size="18" font-weight="400" fill="#202020" text-anchor="start">2 / 5 / 10 / 1</text>
<rect x="584" y="1362" width="508" height="46" rx="0" fill="#fff" stroke="#d0d0d0" stroke-width="1"/>
<rect x="584" y="1362" width="178" height="46" rx="0" fill="#efefef" stroke="#efefef" stroke-width="0"/>
<text x="596" y="1391" font-family="Arial, Helvetica, sans-serif" font-size="17" font-weight="700" fill="#111" text-anchor="start">Public Bonus</text>
<text x="776" y="1391" font-family="Arial, Helvetica, sans-serif" font-size="18" font-weight="400" fill="#202020" text-anchor="start">无；隐藏此行</text>
<rect x="584" y="1408" width="508" height="46" rx="0" fill="#fff" stroke="#d0d0d0" stroke-width="1"/>
<rect x="584" y="1408" width="178" height="46" rx="0" fill="#efefef" stroke="#efefef" stroke-width="0"/>
<text x="596" y="1437" font-family="Arial, Helvetica, sans-serif" font-size="17" font-weight="700" fill="#111" text-anchor="start">Bet Selection</text>
<text x="776" y="1437" font-family="Arial, Helvetica, sans-serif" font-size="18" font-weight="400" fill="#202020" text-anchor="start">玩家下注的数字段</text>
<rect x="584" y="1454" width="508" height="46" rx="0" fill="#fff" stroke="#d0d0d0" stroke-width="1"/>
<rect x="584" y="1454" width="178" height="46" rx="0" fill="#efefef" stroke="#efefef" stroke-width="0"/>
<text x="596" y="1483" font-family="Arial, Helvetica, sans-serif" font-size="17" font-weight="700" fill="#111" text-anchor="start">Final Multiplier</text>
<text x="776" y="1483" font-family="Arial, Helvetica, sans-serif" font-size="18" font-weight="400" fill="#202020" text-anchor="start">最终倍率按 report / 派彩确认</text>
<rect x="584" y="1500" width="508" height="46" rx="0" fill="#fff" stroke="#d0d0d0" stroke-width="1"/>
<rect x="584" y="1500" width="178" height="46" rx="0" fill="#efefef" stroke="#efefef" stroke-width="0"/>
<text x="596" y="1529" font-family="Arial, Helvetica, sans-serif" font-size="17" font-weight="700" fill="#111" text-anchor="start">Special Boost</text>
<text x="776" y="1529" font-family="Arial, Helvetica, sans-serif" font-size="18" font-weight="400" fill="#202020" text-anchor="start">Top Slot / Boost：2 x 3x</text>
<rect x="1108" y="1268" width="508" height="286" rx="0" fill="#fff" stroke="#9f9f9f" stroke-width="1"/>
<rect x="1108" y="1268" width="508" height="48" rx="0" fill="#dedede" stroke="#9f9f9f" stroke-width="1"/>
<circle cx="1134" cy="1292" r="13" fill="#1f2326"/>
<text x="1134" y="1298" font-family="Arial, Helvetica, sans-serif" font-size="15" font-weight="700" fill="white" text-anchor="middle">6</text>
<text x="1160" y="1299" font-family="Arial, Helvetica, sans-serif" font-size="20" font-weight="700" fill="#111" text-anchor="start">Cash Hunt</text>
<rect x="1521" y="1280" width="72" height="26" rx="7" fill="#b47a00" stroke="#b47a00" stroke-width="0"/>
<text x="1557.0" y="1299" font-family="Arial, Helvetica, sans-serif" font-size="15" font-weight="700" fill="white" text-anchor="middle">Bonus</text>
<rect x="1108" y="1316" width="508" height="46" rx="0" fill="#fff" stroke="#d0d0d0" stroke-width="1"/>
<rect x="1108" y="1316" width="178" height="46" rx="0" fill="#efefef" stroke="#efefef" stroke-width="0"/>
<text x="1120" y="1345" font-family="Arial, Helvetica, sans-serif" font-size="17" font-weight="700" fill="#111" text-anchor="start">Game Result</text>
<rect x="1300" y="1326" width="58" height="26" rx="7" fill="#217346" stroke="#217346" stroke-width="0"/>
<text x="1329.0" y="1345" font-family="Arial, Helvetica, sans-serif" font-size="15" font-weight="700" fill="white" text-anchor="middle">可展示</text>
<text x="1370" y="1345" font-family="Arial, Helvetica, sans-serif" font-size="18" font-weight="400" fill="#202020" text-anchor="start">Cash Hunt</text>
<rect x="1108" y="1362" width="508" height="46" rx="0" fill="#fff" stroke="#d0d0d0" stroke-width="1"/>
<rect x="1108" y="1362" width="178" height="46" rx="0" fill="#efefef" stroke="#efefef" stroke-width="0"/>
<text x="1120" y="1391" font-family="Arial, Helvetica, sans-serif" font-size="17" font-weight="700" fill="#111" text-anchor="start">Public Bonus</text>
<text x="1300" y="1391" font-family="Arial, Helvetica, sans-serif" font-size="18" font-weight="400" fill="#202020" text-anchor="start">公共网格 / multipliers 可展示</text>
<rect x="1108" y="1408" width="508" height="46" rx="0" fill="#fff" stroke="#d0d0d0" stroke-width="1"/>
<rect x="1108" y="1408" width="178" height="46" rx="0" fill="#efefef" stroke="#efefef" stroke-width="0"/>
<text x="1120" y="1437" font-family="Arial, Helvetica, sans-serif" font-size="17" font-weight="700" fill="#111" text-anchor="start">Bet Selection</text>
<text x="1300" y="1437" font-family="Arial, Helvetica, sans-serif" font-size="18" font-weight="400" fill="#202020" text-anchor="start">下注项：Cash Hunt</text>
<rect x="1108" y="1454" width="508" height="46" rx="0" fill="#fff" stroke="#d0d0d0" stroke-width="1"/>
<rect x="1108" y="1454" width="178" height="46" rx="0" fill="#efefef" stroke="#efefef" stroke-width="0"/>
<text x="1120" y="1483" font-family="Arial, Helvetica, sans-serif" font-size="17" font-weight="700" fill="#111" text-anchor="start">Final Multiplier</text>
<text x="1300" y="1483" font-family="Arial, Helvetica, sans-serif" font-size="18" font-weight="400" fill="#202020" text-anchor="start">该注实际倍率可展示</text>
<rect x="1108" y="1500" width="508" height="46" rx="0" fill="#fff" stroke="#d0d0d0" stroke-width="1"/>
<rect x="1108" y="1500" width="178" height="46" rx="0" fill="#efefef" stroke="#efefef" stroke-width="0"/>
<text x="1120" y="1529" font-family="Arial, Helvetica, sans-serif" font-size="17" font-weight="700" fill="#111" text-anchor="start">Data Note</text>
<rect x="1300" y="1510" width="58" height="26" rx="7" fill="#c43b35" stroke="#c43b35" stroke-width="0"/>
<text x="1329.0" y="1529" font-family="Arial, Helvetica, sans-serif" font-size="15" font-weight="700" fill="white" text-anchor="middle">需决策</text>
<text x="1370" y="1529" font-family="Arial, Helvetica, sans-serif" font-size="18" font-weight="400" fill="#202020" text-anchor="start">玩家选点未落库</text>
<rect x="60" y="1570" width="508" height="286" rx="0" fill="#fff" stroke="#9f9f9f" stroke-width="1"/>
<rect x="60" y="1570" width="508" height="48" rx="0" fill="#dedede" stroke="#9f9f9f" stroke-width="1"/>
<circle cx="86" cy="1594" r="13" fill="#1f2326"/>
<text x="86" y="1600" font-family="Arial, Helvetica, sans-serif" font-size="15" font-weight="700" fill="white" text-anchor="middle">7</text>
<text x="112" y="1601" font-family="Arial, Helvetica, sans-serif" font-size="20" font-weight="700" fill="#111" text-anchor="start">Pachinko</text>
<rect x="473" y="1582" width="72" height="26" rx="7" fill="#b47a00" stroke="#b47a00" stroke-width="0"/>
<text x="509.0" y="1601" font-family="Arial, Helvetica, sans-serif" font-size="15" font-weight="700" fill="white" text-anchor="middle">Bonus</text>
<rect x="60" y="1618" width="508" height="46" rx="0" fill="#fff" stroke="#d0d0d0" stroke-width="1"/>
<rect x="60" y="1618" width="178" height="46" rx="0" fill="#efefef" stroke="#efefef" stroke-width="0"/>
<text x="72" y="1647" font-family="Arial, Helvetica, sans-serif" font-size="17" font-weight="700" fill="#111" text-anchor="start">Game Result</text>
<rect x="252" y="1628" width="58" height="26" rx="7" fill="#217346" stroke="#217346" stroke-width="0"/>
<text x="281.0" y="1647" font-family="Arial, Helvetica, sans-serif" font-size="15" font-weight="700" fill="white" text-anchor="middle">可展示</text>
<text x="322" y="1647" font-family="Arial, Helvetica, sans-serif" font-size="18" font-weight="400" fill="#202020" text-anchor="start">Pachinko</text>
<rect x="60" y="1664" width="508" height="46" rx="0" fill="#fff" stroke="#d0d0d0" stroke-width="1"/>
<rect x="60" y="1664" width="178" height="46" rx="0" fill="#efefef" stroke="#efefef" stroke-width="0"/>
<text x="72" y="1693" font-family="Arial, Helvetica, sans-serif" font-size="17" font-weight="700" fill="#111" text-anchor="start">Public Bonus</text>
<text x="252" y="1693" font-family="Arial, Helvetica, sans-serif" font-size="18" font-weight="400" fill="#202020" text-anchor="start">最终落点 / 结果倍率可展示</text>
<rect x="60" y="1710" width="508" height="46" rx="0" fill="#fff" stroke="#d0d0d0" stroke-width="1"/>
<rect x="60" y="1710" width="178" height="46" rx="0" fill="#efefef" stroke="#efefef" stroke-width="0"/>
<text x="72" y="1739" font-family="Arial, Helvetica, sans-serif" font-size="17" font-weight="700" fill="#111" text-anchor="start">Bet Selection</text>
<text x="252" y="1739" font-family="Arial, Helvetica, sans-serif" font-size="18" font-weight="400" fill="#202020" text-anchor="start">下注项：Pachinko</text>
<rect x="60" y="1756" width="508" height="46" rx="0" fill="#fff" stroke="#d0d0d0" stroke-width="1"/>
<rect x="60" y="1756" width="178" height="46" rx="0" fill="#efefef" stroke="#efefef" stroke-width="0"/>
<text x="72" y="1785" font-family="Arial, Helvetica, sans-serif" font-size="17" font-weight="700" fill="#111" text-anchor="start">Final Multiplier</text>
<text x="252" y="1785" font-family="Arial, Helvetica, sans-serif" font-size="18" font-weight="400" fill="#202020" text-anchor="start">该注实际倍率可展示</text>
<rect x="60" y="1802" width="508" height="46" rx="0" fill="#fff" stroke="#d0d0d0" stroke-width="1"/>
<rect x="60" y="1802" width="178" height="46" rx="0" fill="#efefef" stroke="#efefef" stroke-width="0"/>
<text x="72" y="1831" font-family="Arial, Helvetica, sans-serif" font-size="17" font-weight="700" fill="#111" text-anchor="start">Special Boost</text>
<text x="252" y="1831" font-family="Arial, Helvetica, sans-serif" font-size="18" font-weight="400" fill="#202020" text-anchor="start">无数据不展示空 Top Slot</text>
<rect x="584" y="1570" width="508" height="286" rx="0" fill="#fff" stroke="#9f9f9f" stroke-width="1"/>
<rect x="584" y="1570" width="508" height="48" rx="0" fill="#dedede" stroke="#9f9f9f" stroke-width="1"/>
<circle cx="610" cy="1594" r="13" fill="#1f2326"/>
<text x="610" y="1600" font-family="Arial, Helvetica, sans-serif" font-size="15" font-weight="700" fill="white" text-anchor="middle">8</text>
<text x="636" y="1601" font-family="Arial, Helvetica, sans-serif" font-size="20" font-weight="700" fill="#111" text-anchor="start">Coin Flip</text>
<rect x="997" y="1582" width="72" height="26" rx="7" fill="#b47a00" stroke="#b47a00" stroke-width="0"/>
<text x="1033.0" y="1601" font-family="Arial, Helvetica, sans-serif" font-size="15" font-weight="700" fill="white" text-anchor="middle">Bonus</text>
<rect x="584" y="1618" width="508" height="46" rx="0" fill="#fff" stroke="#d0d0d0" stroke-width="1"/>
<rect x="584" y="1618" width="178" height="46" rx="0" fill="#efefef" stroke="#efefef" stroke-width="0"/>
<text x="596" y="1647" font-family="Arial, Helvetica, sans-serif" font-size="17" font-weight="700" fill="#111" text-anchor="start">Game Result</text>
<rect x="776" y="1628" width="58" height="26" rx="7" fill="#217346" stroke="#217346" stroke-width="0"/>
<text x="805.0" y="1647" font-family="Arial, Helvetica, sans-serif" font-size="15" font-weight="700" fill="white" text-anchor="middle">可展示</text>
<text x="846" y="1647" font-family="Arial, Helvetica, sans-serif" font-size="18" font-weight="400" fill="#202020" text-anchor="start">Coin Flip</text>
<rect x="584" y="1664" width="508" height="46" rx="0" fill="#fff" stroke="#d0d0d0" stroke-width="1"/>
<rect x="584" y="1664" width="178" height="46" rx="0" fill="#efefef" stroke="#efefef" stroke-width="0"/>
<text x="596" y="1693" font-family="Arial, Helvetica, sans-serif" font-size="17" font-weight="700" fill="#111" text-anchor="start">Public Bonus</text>
<text x="776" y="1693" font-family="Arial, Helvetica, sans-serif" font-size="18" font-weight="400" fill="#202020" text-anchor="start">Red / Blue 结果有数据才展示</text>
<rect x="584" y="1710" width="508" height="46" rx="0" fill="#fff" stroke="#d0d0d0" stroke-width="1"/>
<rect x="584" y="1710" width="178" height="46" rx="0" fill="#efefef" stroke="#efefef" stroke-width="0"/>
<text x="596" y="1739" font-family="Arial, Helvetica, sans-serif" font-size="17" font-weight="700" fill="#111" text-anchor="start">Bet Selection</text>
<text x="776" y="1739" font-family="Arial, Helvetica, sans-serif" font-size="18" font-weight="400" fill="#202020" text-anchor="start">下注项：Coin Flip</text>
<rect x="584" y="1756" width="508" height="46" rx="0" fill="#fff" stroke="#d0d0d0" stroke-width="1"/>
<rect x="584" y="1756" width="178" height="46" rx="0" fill="#efefef" stroke="#efefef" stroke-width="0"/>
<text x="596" y="1785" font-family="Arial, Helvetica, sans-serif" font-size="17" font-weight="700" fill="#111" text-anchor="start">Final Multiplier</text>
<text x="776" y="1785" font-family="Arial, Helvetica, sans-serif" font-size="18" font-weight="400" fill="#202020" text-anchor="start">命中面倍率可展示</text>
<rect x="584" y="1802" width="508" height="46" rx="0" fill="#fff" stroke="#d0d0d0" stroke-width="1"/>
<rect x="584" y="1802" width="178" height="46" rx="0" fill="#efefef" stroke="#efefef" stroke-width="0"/>
<text x="596" y="1831" font-family="Arial, Helvetica, sans-serif" font-size="17" font-weight="700" fill="#111" text-anchor="start">Special Boost</text>
<text x="776" y="1831" font-family="Arial, Helvetica, sans-serif" font-size="18" font-weight="400" fill="#202020" text-anchor="start">颜色不是常驻字段，只在本玩法显示</text>
<rect x="1108" y="1570" width="508" height="286" rx="0" fill="#fff" stroke="#9f9f9f" stroke-width="1"/>
<rect x="1108" y="1570" width="508" height="48" rx="0" fill="#dedede" stroke="#9f9f9f" stroke-width="1"/>
<circle cx="1134" cy="1594" r="13" fill="#1f2326"/>
<text x="1134" y="1600" font-family="Arial, Helvetica, sans-serif" font-size="15" font-weight="700" fill="white" text-anchor="middle">9</text>
<text x="1160" y="1601" font-family="Arial, Helvetica, sans-serif" font-size="20" font-weight="700" fill="#111" text-anchor="start">Crazy Time</text>
<rect x="1521" y="1582" width="72" height="26" rx="7" fill="#b47a00" stroke="#b47a00" stroke-width="0"/>
<text x="1557.0" y="1601" font-family="Arial, Helvetica, sans-serif" font-size="15" font-weight="700" fill="white" text-anchor="middle">Bonus</text>
<rect x="1108" y="1618" width="508" height="46" rx="0" fill="#fff" stroke="#d0d0d0" stroke-width="1"/>
<rect x="1108" y="1618" width="178" height="46" rx="0" fill="#efefef" stroke="#efefef" stroke-width="0"/>
<text x="1120" y="1647" font-family="Arial, Helvetica, sans-serif" font-size="17" font-weight="700" fill="#111" text-anchor="start">Game Result</text>
<rect x="1300" y="1628" width="58" height="26" rx="7" fill="#217346" stroke="#217346" stroke-width="0"/>
<text x="1329.0" y="1647" font-family="Arial, Helvetica, sans-serif" font-size="15" font-weight="700" fill="white" text-anchor="middle">可展示</text>
<text x="1370" y="1647" font-family="Arial, Helvetica, sans-serif" font-size="18" font-weight="400" fill="#202020" text-anchor="start">Crazy Time</text>
<rect x="1108" y="1664" width="508" height="46" rx="0" fill="#fff" stroke="#d0d0d0" stroke-width="1"/>
<rect x="1108" y="1664" width="178" height="46" rx="0" fill="#efefef" stroke="#efefef" stroke-width="0"/>
<text x="1120" y="1693" font-family="Arial, Helvetica, sans-serif" font-size="17" font-weight="700" fill="#111" text-anchor="start">Public Bonus</text>
<text x="1300" y="1693" font-family="Arial, Helvetica, sans-serif" font-size="18" font-weight="400" fill="#202020" text-anchor="start">Left / Top / Right 公共 flapper 可展示</text>
<rect x="1108" y="1710" width="508" height="46" rx="0" fill="#fff" stroke="#d0d0d0" stroke-width="1"/>
<rect x="1108" y="1710" width="178" height="46" rx="0" fill="#efefef" stroke="#efefef" stroke-width="0"/>
<text x="1120" y="1739" font-family="Arial, Helvetica, sans-serif" font-size="17" font-weight="700" fill="#111" text-anchor="start">Bet Selection</text>
<text x="1300" y="1739" font-family="Arial, Helvetica, sans-serif" font-size="18" font-weight="400" fill="#202020" text-anchor="start">下注项：Crazy Time</text>
<rect x="1108" y="1756" width="508" height="46" rx="0" fill="#fff" stroke="#d0d0d0" stroke-width="1"/>
<rect x="1108" y="1756" width="178" height="46" rx="0" fill="#efefef" stroke="#efefef" stroke-width="0"/>
<text x="1120" y="1785" font-family="Arial, Helvetica, sans-serif" font-size="17" font-weight="700" fill="#111" text-anchor="start">Final Multiplier</text>
<text x="1300" y="1785" font-family="Arial, Helvetica, sans-serif" font-size="18" font-weight="400" fill="#202020" text-anchor="start">该注实际倍率可展示</text>
<rect x="1108" y="1802" width="508" height="46" rx="0" fill="#fff" stroke="#d0d0d0" stroke-width="1"/>
<rect x="1108" y="1802" width="178" height="46" rx="0" fill="#efefef" stroke="#efefef" stroke-width="0"/>
<text x="1120" y="1831" font-family="Arial, Helvetica, sans-serif" font-size="17" font-weight="700" fill="#111" text-anchor="start">Data Note</text>
<rect x="1300" y="1812" width="58" height="26" rx="7" fill="#c43b35" stroke="#c43b35" stroke-width="0"/>
<text x="1329.0" y="1831" font-family="Arial, Helvetica, sans-serif" font-size="15" font-weight="700" fill="white" text-anchor="middle">需决策</text>
<text x="1370" y="1831" font-family="Arial, Helvetica, sans-serif" font-size="18" font-weight="400" fill="#202020" text-anchor="start">玩家选点未落库</text>
<rect x="42" y="1888" width="1596" height="226" rx="0" fill="#fff" stroke="#aaa" stroke-width="1"/>
<text x="62" y="1926" font-family="Arial, Helvetica, sans-serif" font-size="24" font-weight="800" fill="#111" text-anchor="start">领导决策点</text>
<rect x="64" y="1950" width="62" height="26" rx="7" fill="#b47a00" stroke="#b47a00" stroke-width="0"/>
<text x="95.0" y="1969" font-family="Arial, Helvetica, sans-serif" font-size="15" font-weight="700" fill="white" text-anchor="middle">方案 A</text>
<text x="152" y="1970" font-family="Arial, Helvetica, sans-serif" font-size="18" font-weight="400" fill="#202020" text-anchor="start">维持不改结算：一期只做可得数据展示。Cash Hunt / Crazy Time 私有选点显示“当前报表无数据，需补落库”。</text>
<rect x="64" y="2000" width="62" height="26" rx="7" fill="#c43b35" stroke="#c43b35" stroke-width="0"/>
<text x="95.0" y="2019" font-family="Arial, Helvetica, sans-serif" font-size="15" font-weight="700" fill="white" text-anchor="middle">方案 B</text>
<text x="152" y="2020" font-family="Arial, Helvetica, sans-serif" font-size="18" font-weight="400" fill="#202020" text-anchor="start">允许补落库：结算侧持久化每个玩家的 Cash Hunt 格子 / Crazy Time flapper，报表再完整展示玩家选点。</text>
<text x="62" y="2062" font-family="Arial, Helvetica, sans-serif" font-size="18" font-weight="700" fill="#111" text-anchor="start">必修 bug：现有 crazytime renderer 应先改为读取顶层 report.extra，否则 Top Slot / Bonus Result 会继续取不到。</text>
<text x="62" y="2090" font-family="Arial, Helvetica, sans-serif" font-size="18" font-weight="700" fill="#111" text-anchor="start">开发边界：静态报表页只展示可确定字段；不得靠猜测补齐玩家选择图案。</text>
</svg>