<svg xmlns="http://www.w3.org/2000/svg" width="1600" height="1000" viewBox="0 0 1600 1000">
    <rect width="1600" height="1000" fill="#eef2f7"/>
    <rect x="36" y="36" width="250" height="928" rx="10" fill="#111827"/>
    <text x="72" y="95" font-family="Heiti SC" font-size="31" fill="#ffffff" font-weight="900" text-anchor="start">PP 真人后台</text>
    
        <rect x="60" y="80" width="210" height="44" rx="9" fill="transparent"/>
        <text x="88" y="107" font-family="Heiti SC" font-size="20" fill="#cbd5e1" font-weight="600" text-anchor="start">驾驶舱</text>
      
        <rect x="60" y="138" width="210" height="44" rx="9" fill="transparent"/>
        <text x="88" y="165" font-family="Heiti SC" font-size="20" fill="#cbd5e1" font-weight="600" text-anchor="start">游戏用户</text>
      
        <rect x="60" y="196" width="210" height="44" rx="9" fill="transparent"/>
        <text x="88" y="223" font-family="Heiti SC" font-size="20" fill="#cbd5e1" font-weight="600" text-anchor="start">游戏开奖记录</text>
      
        <rect x="60" y="254" width="210" height="44" rx="9" fill="transparent"/>
        <text x="88" y="281" font-family="Heiti SC" font-size="20" fill="#cbd5e1" font-weight="600" text-anchor="start">游戏局归档</text>
      
        <rect x="60" y="312" width="210" height="44" rx="9" fill="transparent"/>
        <text x="88" y="339" font-family="Heiti SC" font-size="20" fill="#cbd5e1" font-weight="600" text-anchor="start">游戏流水</text>
      
        <rect x="60" y="370" width="210" height="44" rx="9" fill="transparent"/>
        <text x="88" y="397" font-family="Heiti SC" font-size="20" fill="#cbd5e1" font-weight="600" text-anchor="start">Wallet流水</text>
      
        <rect x="60" y="428" width="210" height="44" rx="9" fill="#2563eb"/>
        <text x="88" y="455" font-family="Heiti SC" font-size="20" fill="#ffffff" font-weight="800" text-anchor="start">ProviderAPI日志</text>
      
        <rect x="60" y="486" width="210" height="44" rx="9" fill="transparent"/>
        <text x="88" y="513" font-family="Heiti SC" font-size="20" fill="#cbd5e1" font-weight="600" text-anchor="start">操作记录</text>
      

    <rect x="330" y="36" width="1225" height="68" rx="10" fill="#ffffff" stroke="#d8e0ec"/>
    <text x="358" y="78" font-family="Heiti SC" font-size="18" fill="#64748b" font-weight="700" text-anchor="start">日志中心 / ProviderAPI入站日志</text>
    <rect x="1225" y="50" width="255" height="42" rx="9" fill="#ecfeff" stroke="#67e8f9" stroke-width="2"/><text x="1352.5" y="77" font-family="Heiti SC" font-size="18" fill="#155e75" font-weight="600" text-anchor="middle">日志排查 · 不改 token</text>
    <rect x="1498" y="50" width="110" height="42" rx="9" fill="#f8fafc" stroke="#cbd5e1" stroke-width="2"/><text x="1553" y="77" font-family="Heiti SC" font-size="18" fill="#334155" font-weight="600" text-anchor="middle">导出受控</text>

    <text x="330" y="154" font-family="Heiti SC" font-size="38" fill="#0f172a" font-weight="900" text-anchor="start">会话日志 / Token异常</text>
    <text x="330" y="192" font-family="Heiti SC" font-size="22" fill="#64748b" font-weight="700" text-anchor="start">复用用户局内动作、ProviderAPI 入站日志和游戏消息流水定位会话异常。</text>

    <rect x="330" y="210" width="1225" height="85" rx="12" fill="#fff7ed" stroke="#fb923c" stroke-width="2"/>
    <text x="360" y="247" font-family="Heiti SC" font-size="24" fill="#9a3412" font-weight="900" text-anchor="start">产品审核区：</text>
    <text x="500" y="247" font-family="Heiti SC" font-size="20" fill="#334155" font-weight="700" text-anchor="start">本页用于定位 InvalidToken、SessionExpired、上游断连、home_url 跳转和玩家会话链路问题。</text>
    <rect x="350" y="226" width="190" height="42" rx="9" fill="#f8fafc" stroke="#cbd5e1" stroke-width="2"/><text x="445" y="253" font-family="Heiti SC" font-size="18" fill="#334155" font-weight="600" text-anchor="middle">玩家 / 商户</text><rect x="575" y="226" width="190" height="42" rx="9" fill="#f8fafc" stroke="#cbd5e1" stroke-width="2"/><text x="670" y="253" font-family="Heiti SC" font-size="18" fill="#334155" font-weight="600" text-anchor="middle">Session ID</text><rect x="800" y="226" width="190" height="42" rx="9" fill="#f8fafc" stroke="#cbd5e1" stroke-width="2"/><text x="895" y="253" font-family="Heiti SC" font-size="18" fill="#334155" font-weight="600" text-anchor="middle">Token 摘要</text><rect x="350" y="280" width="190" height="42" rx="9" fill="#f8fafc" stroke="#cbd5e1" stroke-width="2"/><text x="445" y="307" font-family="Heiti SC" font-size="18" fill="#334155" font-weight="600" text-anchor="middle">异常类型</text><rect x="575" y="280" width="190" height="42" rx="9" fill="#f8fafc" stroke="#cbd5e1" stroke-width="2"/><text x="670" y="307" font-family="Heiti SC" font-size="18" fill="#334155" font-weight="600" text-anchor="middle">gameId / tableId</text><rect x="800" y="280" width="190" height="42" rx="9" fill="#f8fafc" stroke="#cbd5e1" stroke-width="2"/><text x="895" y="307" font-family="Heiti SC" font-size="18" fill="#334155" font-weight="600" text-anchor="middle">时间范围</text>

    <rect x="330" y="320" width="790" height="350" rx="13" fill="#ffffff" stroke="#cbd5e1" stroke-width="2"/>
    <text x="360" y="352" font-family="Heiti SC" font-size="26" fill="#0f172a" font-weight="900" text-anchor="start">列表与查询结果</text>
    <line x1="360" y1="368" x2="1070" y2="368" stroke="#cbd5e1" stroke-width="2"/>
    <text x="356" y="382" font-family="Heiti SC" font-size="14" fill="#475569" font-weight="800" text-anchor="start">异常类型</text><text x="452" y="382" font-family="Heiti SC" font-size="14" fill="#475569" font-weight="800" text-anchor="start">玩家</text><text x="548" y="382" font-family="Heiti SC" font-size="14" fill="#475569" font-weight="800" text-anchor="start">来源</text><text x="640" y="382" font-family="Heiti SC" font-size="14" fill="#475569" font-weight="800" text-anchor="start">gameId</text><text x="730" y="382" font-family="Heiti SC" font-size="14" fill="#475569" font-weight="800" text-anchor="start">发生时间</text><text x="822" y="382" font-family="Heiti SC" font-size="14" fill="#475569" font-weight="800" text-anchor="start">处理结果</text><text x="920" y="382" font-family="Heiti SC" font-size="14" fill="#475569" font-weight="800" text-anchor="start">home_url</text><text x="1010" y="382" font-family="Heiti SC" font-size="14" fill="#475569" font-weight="800" text-anchor="start">关联</text>
    
        <rect x="345" y="391" width="760" height="54" rx="8" fill="#f8fafc" stroke="#e2e8f0"/>
        <text x="356" y="424" font-family="Heiti SC" font-size="12" fill="#1e293b" font-weight="500" text-anchor="start">InvalidToken</text><text x="452" y="424" font-family="Heiti SC" font-size="12" fill="#1e293b" font-weight="500" text-anchor="start">u_10086</text><text x="548" y="424" font-family="Heiti SC" font-size="12" fill="#1e293b" font-weight="500" text-anchor="start">ProviderAPI</text><text x="640" y="424" font-family="Heiti SC" font-size="12" fill="#1e293b" font-weight="500" text-anchor="start">14775540204</text><text x="730" y="424" font-family="Heiti SC" font-size="12" fill="#1e293b" font-weight="500" text-anchor="start">19:01:05</text><text x="822" y="424" font-family="Heiti SC" font-size="12" fill="#1e293b" font-weight="500" text-anchor="start">拒绝进入</text><text x="920" y="424" font-family="Heiti SC" font-size="12" fill="#0f766e" font-weight="700" text-anchor="start">已配置</text><text x="1010" y="424" font-family="Heiti SC" font-size="12" fill="#0f766e" font-weight="700" text-anchor="start">玩家 / 局</text>
      
        <rect x="345" y="453" width="760" height="54" rx="8" fill="#ffffff" stroke="#e2e8f0"/>
        <text x="356" y="486" font-family="Heiti SC" font-size="12" fill="#1e293b" font-weight="500" text-anchor="start">SessionExpired</text><text x="452" y="486" font-family="Heiti SC" font-size="12" fill="#1e293b" font-weight="500" text-anchor="start">u_10087</text><text x="548" y="486" font-family="Heiti SC" font-size="12" fill="#1e293b" font-weight="500" text-anchor="start">局内动作</text><text x="640" y="486" font-family="Heiti SC" font-size="12" fill="#1e293b" font-weight="500" text-anchor="start">14775540205</text><text x="730" y="486" font-family="Heiti SC" font-size="12" fill="#1e293b" font-weight="500" text-anchor="start">19:03:41</text><text x="822" y="486" font-family="Heiti SC" font-size="12" fill="#1e293b" font-weight="500" text-anchor="start">跳回大厅</text><text x="920" y="486" font-family="Heiti SC" font-size="12" fill="#0f766e" font-weight="700" text-anchor="start">fallback</text><text x="1010" y="486" font-family="Heiti SC" font-size="12" fill="#0f766e" font-weight="700" text-anchor="start">会话 / 注单</text>
      
        <rect x="345" y="515" width="760" height="54" rx="8" fill="#f8fafc" stroke="#e2e8f0"/>
        <text x="356" y="548" font-family="Heiti SC" font-size="12" fill="#1e293b" font-weight="500" text-anchor="start">上游断连</text><text x="452" y="548" font-family="Heiti SC" font-size="12" fill="#1e293b" font-weight="500" text-anchor="start">u_10088</text><text x="548" y="548" font-family="Heiti SC" font-size="12" fill="#1e293b" font-weight="500" text-anchor="start">消息流水</text><text x="640" y="548" font-family="Heiti SC" font-size="12" fill="#1e293b" font-weight="500" text-anchor="start">14775540206</text><text x="730" y="548" font-family="Heiti SC" font-size="12" fill="#1e293b" font-weight="500" text-anchor="start">19:08:20</text><text x="822" y="548" font-family="Heiti SC" font-size="12" fill="#1e293b" font-weight="500" text-anchor="start">等待恢复</text><text x="920" y="548" font-family="Heiti SC" font-size="12" fill="#0f766e" font-weight="700" text-anchor="start">--</text><text x="1010" y="548" font-family="Heiti SC" font-size="12" fill="#0f766e" font-weight="700" text-anchor="start">消息 / 详情</text>
      

    <rect x="1135" y="320" width="420" height="350" rx="13" fill="#ffffff" stroke="#cbd5e1" stroke-width="2"/>
    <text x="1160" y="352" font-family="Heiti SC" font-size="26" fill="#0f172a" font-weight="900" text-anchor="start">会话异常详情</text>
    <line x1="1160" y1="368" x2="1518" y2="368" stroke="#cbd5e1" stroke-width="2"/>
    <text x="1160" y="412" font-family="Heiti SC" font-size="17" fill="#334155" font-weight="600" text-anchor="start">1. 来源、客户端语义、home_url</text><text x="1160" y="460" font-family="Heiti SC" font-size="17" fill="#334155" font-weight="600" text-anchor="start">2. 关联玩家、局、注单、钱包</text><text x="1160" y="508" font-family="Heiti SC" font-size="17" fill="#334155" font-weight="600" text-anchor="start">3. Token、签名、密钥全部脱敏</text>
    <rect x="1160" y="580" width="155" height="42" rx="9" fill="#eff6ff" stroke="#60a5fa" stroke-width="2"/><text x="1237.5" y="607" font-family="Heiti SC" font-size="18" fill="#1d4ed8" font-weight="600" text-anchor="middle">查看详情</text>
    <rect x="1330" y="580" width="155" height="42" rx="9" fill="#f8fafc" stroke="#cbd5e1" stroke-width="2"/><text x="1407.5" y="607" font-family="Heiti SC" font-size="18" fill="#334155" font-weight="600" text-anchor="middle">复制排查 ID</text>

    <rect x="330" y="695" width="790" height="205" rx="13" fill="#ffffff" stroke="#cbd5e1" stroke-width="2"/>
    <text x="360" y="730" font-family="Heiti SC" font-size="26" fill="#0f172a" font-weight="900" text-anchor="start">本期验收红线</text>
    <rect x="360" y="760" width="180" height="42" rx="9" fill="#ecfdf5" stroke="#34d399" stroke-width="2"/><text x="450" y="787" font-family="Heiti SC" font-size="18" fill="#065f46" font-weight="600" text-anchor="middle">后端权限校验</text>
    <rect x="560" y="760" width="190" height="42" rx="9" fill="#ecfdf5" stroke="#34d399" stroke-width="2"/><text x="655" y="787" font-family="Heiti SC" font-size="18" fill="#065f46" font-weight="600" text-anchor="middle">导出不超页面字段</text>
    <rect x="770" y="760" width="155" height="42" rx="9" fill="#ecfdf5" stroke="#34d399" stroke-width="2"/><text x="847.5" y="787" font-family="Heiti SC" font-size="18" fill="#065f46" font-weight="600" text-anchor="middle">敏感字段脱敏</text>
    <rect x="945" y="760" width="135" height="42" rx="9" fill="#ecfdf5" stroke="#34d399" stroke-width="2"/><text x="1012.5" y="787" font-family="Heiti SC" font-size="18" fill="#065f46" font-weight="600" text-anchor="middle">操作审计</text>
    <text x="360" y="845" font-family="Heiti SC" font-size="20" fill="#334155" font-weight="700" text-anchor="start">URL / API / 导出 / 详情跳转都不能绕过角色、商户、代理、组织权限。</text>
    <text x="360" y="878" font-family="Heiti SC" font-size="18" fill="#92400e" font-weight="800" text-anchor="start">图为 #121 高保真后台原型，用于功能位置、标注和验收对齐；最终 UI 沿用现有 PP 后台样式。</text>

    <rect x="1135" y="695" width="420" height="205" rx="13" fill="#ffffff" stroke="#fb7185" stroke-width="2"/>
    <text x="1160" y="730" font-family="Heiti SC" font-size="26" fill="#9f1239" font-weight="900" text-anchor="start">不纳入本期</text>
    <rect x="1160" y="705" width="160" height="42" rx="9" fill="#fff1f2" stroke="#fb7185" stroke-width="2"/><text x="1240" y="732" font-family="Heiti SC" font-size="18" fill="#9f1239" font-weight="600" text-anchor="middle">不新增独立异常页</text><rect x="1340" y="705" width="160" height="42" rx="9" fill="#fff1f2" stroke="#fb7185" stroke-width="2"/><text x="1420" y="732" font-family="Heiti SC" font-size="18" fill="#9f1239" font-weight="600" text-anchor="middle">不修改 token</text><rect x="1160" y="757" width="160" height="42" rx="9" fill="#fff1f2" stroke="#fb7185" stroke-width="2"/><text x="1240" y="784" font-family="Heiti SC" font-size="18" fill="#9f1239" font-weight="600" text-anchor="middle">不强制踢人</text><rect x="1340" y="757" width="160" height="42" rx="9" fill="#fff1f2" stroke="#fb7185" stroke-width="2"/><text x="1420" y="784" font-family="Heiti SC" font-size="18" fill="#9f1239" font-weight="600" text-anchor="middle">不绕过商户鉴权</text>

    <rect x="310" y="250" width="820" height="442" rx="14" fill="none" stroke="#f97316" stroke-width="4"/>
    <rect x="1115" y="250" width="455" height="670" rx="14" fill="none" stroke="#f97316" stroke-width="4"/>
    
    <circle cx="330" cy="214" r="31" fill="#fff7ed" stroke="#f97316" stroke-width="5"/>
    <text x="330" y="223" font-family="Heiti SC" font-size="26" fill="#ea580c" font-weight="800" text-anchor="middle">1</text>
    <rect x="368" y="190" width="250" height="48" rx="10" fill="#fff7ed" stroke="#fdba74" stroke-width="1.5"/>
    <text x="380" y="220" font-family="Heiti SC" font-size="15" fill="#7c2d12" font-weight="700" text-anchor="start">查询区支持会话 ID、Token 摘要和异常类型</text>
  
    <circle cx="330" cy="360" r="31" fill="#fff7ed" stroke="#f97316" stroke-width="5"/>
    <text x="330" y="369" font-family="Heiti SC" font-size="26" fill="#ea580c" font-weight="800" text-anchor="middle">2</text>
    <rect x="368" y="336" width="250" height="48" rx="10" fill="#fff7ed" stroke="#fdba74" stroke-width="1.5"/>
    <text x="380" y="366" font-family="Heiti SC" font-size="15" fill="#7c2d12" font-weight="700" text-anchor="start">异常分类清楚，不只显示英文枚举</text>
  
    <circle cx="1125" cy="360" r="31" fill="#fff7ed" stroke="#f97316" stroke-width="5"/>
    <text x="1125" y="369" font-family="Heiti SC" font-size="26" fill="#ea580c" font-weight="800" text-anchor="middle">3</text>
    <rect x="1163" y="336" width="250" height="48" rx="10" fill="#fff7ed" stroke="#fdba74" stroke-width="1.5"/>
    <text x="1175" y="366" font-family="Heiti SC" font-size="15" fill="#7c2d12" font-weight="700" text-anchor="start">详情展示 home_url / fallback 和关联对象</text>
  
    <circle cx="1125" cy="690" r="31" fill="#fff7ed" stroke="#f97316" stroke-width="5"/>
    <text x="1125" y="699" font-family="Heiti SC" font-size="26" fill="#ea580c" font-weight="800" text-anchor="middle">4</text>
    <rect x="1163" y="666" width="250" height="48" rx="10" fill="#fff7ed" stroke="#fdba74" stroke-width="1.5"/>
    <text x="1175" y="696" font-family="Heiti SC" font-size="15" fill="#7c2d12" font-weight="700" text-anchor="start">只读、脱敏、审计，不做鉴权绕过</text>
  
  </svg>